<svg xmlns="http://www.w3.org/2000/svg" shape-rendering="geometricPrecision" text-rendering="geometricPrecision" image-rendering="optimizeQuality" fill-rule="evenodd" clip-rule="evenodd" viewBox="0 0 512 512"><path fill-rule="nonzero" d="M255.992 0C326.373 0 390.38 28.807 436.77 75.18 483.193 121.621 512 185.627 512 255.992c0 70.415-28.807 134.438-75.18 180.812C390.43 483.194 326.407 512 256.008 512c-70.348 0-134.354-28.806-180.761-75.196C28.79 390.33 0 326.34 0 256.009 0 185.593 28.807 121.57 75.197 75.18 121.57 28.807 185.593 0 255.992 0zM128.147 357.035v-23.718c0-.898.729-1.627 1.627-1.627H382.21c.897 0 1.627.729 1.627 1.627v23.718c0 .898-.73 1.627-1.627 1.627H129.774a1.628 1.628 0 01-1.627-1.627zm102.991-92.593l.004 22.091c0 .898-.729 1.627-1.627 1.627h-99.741a1.628 1.628 0 01-1.627-1.627v-23.714c0-.898.729-1.627 1.627-1.627H196c-5.176-5.798-9.167-11.926-11.956-18.358-3.258-7.49-4.889-15.379-4.889-23.66 0-10.223 1.903-19.766 5.718-28.595l.068-.142c3.803-8.746 9.482-16.788 17.026-24.087 7.564-7.371 15.871-12.897 24.892-16.581 9.049-3.695 18.822-5.541 29.294-5.541 10.472 0 20.249 1.846 29.297 5.541 9.025 3.684 17.329 9.214 24.892 16.581 7.586 7.337 13.285 15.43 17.087 24.229 3.822 8.829 5.726 18.372 5.726 28.595 0 8.281-1.631 16.17-4.885 23.66l-.042.089c-2.79 6.4-6.769 12.498-11.919 18.269h65.901c.897 0 1.627.729 1.627 1.627v23.714c0 .898-.73 1.627-1.627 1.627h-99.737a1.629 1.629 0 01-1.628-1.627v-22.091c0-.626.357-1.17.875-1.443 8.27-5.307 14.47-11.5 18.592-18.568 4.125-7.08 6.197-15.069 6.197-23.956 0-6.712-1.244-12.963-3.726-18.73-2.487-5.779-6.228-11.109-11.205-15.955-5.003-4.87-10.46-8.53-16.354-10.956-5.875-2.417-12.237-3.633-19.071-3.633-6.892 0-13.296 1.216-19.19 3.637-5.909 2.425-11.366 6.082-16.331 10.944-4.954 4.85-8.673 10.176-11.132 15.94-2.468 5.771-3.699 12.03-3.699 18.753 0 8.898 2.045 16.891 6.116 23.963 4.087 7.099 10.253 13.319 18.48 18.646.476.31.737.828.741 1.358zm24.87-240.752c-63.888 0-121.989 26.156-164.067 68.234C49.829 134.036 23.69 192.12 23.69 255.992c0 63.922 26.139 122.023 68.201 164.068 42.094 42.111 100.195 68.251 164.101 68.251 63.888 0 121.972-26.14 164.084-68.251 42.078-42.079 68.234-100.179 68.234-164.051 0-63.906-26.122-122.024-68.217-164.101C378.015 49.813 319.897 23.69 256.008 23.69z"/></svg>